# xmcd CD database file
#
# Track frame offsets:
#	150
#	18762
#	34427
#	53685
#	72860
#	92510
#	109485
#	124772
#	145690
#	165622
#
# Disc length: 2482 seconds
#
# Revision: 2
# Processed by: cddbd v1.4PL0 Copyright (c) Steve Scherf et al.
# Submitted via: CDex 1.40Release
#
DISCID=8109b00a
DTITLE=Renato Zero - Renato Zero - I Miti Musica
DYEAR=1999
DGENRE=Pop
TTITLE0=No! Mamma, No!
TTITLE1=Inventi
TTITLE2=Mi Vendo
TTITLE3=Il Cielo
TTITLE4=La Favola Mia
TTITLE5=Madame
TTITLE6=La Tua Idea
TTITLE7=Triangolo
TTITLE8=Periferia
TTITLE9=Il Carrozzone
EXTD=YEAR: 1999 ID3G: 13
EXTT0=
EXTT1=
EXTT2=
EXTT3=
EXTT4=
EXTT5=
EXTT6=
EXTT7=
EXTT8=
EXTT9=
PLAYORDER=
